<?xml version="1.0" encoding="utf-8"?>
<!-- Generator: Adobe Illustrator 23.0.4, SVG Export Plug-In . SVG Version: 6.00 Build 0)  -->
<svg version="1.2" baseProfile="tiny" id="Layer_1" xmlns="http://www.w3.org/2000/svg" xmlns:xlink="http://www.w3.org/1999/xlink"
	 x="0px" y="0px" viewBox="0 0 200 100" xml:space="preserve">
<title>hues-colors-100-200</title>
<rect x="22.5" y="-74.6" transform="matrix(0.9371 -0.3491 0.3491 0.9371 -21.1199 13.9475)" fill="#ED7623" width="11.2" height="280.4"/>
<rect x="33" y="-78.6" transform="matrix(0.9371 -0.3491 0.3491 0.9371 -19.091 17.3711)" fill="#E02726" width="11.2" height="280.4"/>
<rect x="12" y="-70.7" transform="matrix(0.9371 -0.3491 0.3491 0.9371 -23.1488 10.524)" fill="#F5A81C" width="11.2" height="280.4"/>
<rect x="1.5" y="-66.8" transform="matrix(0.9371 -0.3491 0.3491 0.9371 -25.1777 7.1004)" fill="#FFCD00" width="11.2" height="280.4"/>
<rect x="-9" y="-62.9" transform="matrix(0.9371 -0.3491 0.3491 0.9371 -27.2066 3.6768)" fill="#FCDC00" width="11.2" height="280.4"/>
<rect x="75.1" y="-93.2" transform="matrix(0.9371 -0.3491 0.3491 0.9371 -11.3246 31.1283)" fill="#8D1D59" width="11.2" height="280.4"/>
<rect x="85.6" y="-97.1" transform="matrix(0.9371 -0.3491 0.3491 0.9371 -9.2957 34.5519)" fill="#9A268D" width="11.2" height="280.4"/>
<rect x="64.6" y="-89.3" transform="matrix(0.9371 -0.3491 0.3491 0.9371 -13.3535 27.7047)" fill="#E81D76" width="11.2" height="280.4"/>
<rect x="54.1" y="-85.4" transform="matrix(0.9371 -0.3491 0.3491 0.9371 -15.3824 24.2812)" fill="#CC1F41" width="11.2" height="280.4"/>
<rect x="43.5" y="-82.5" transform="matrix(0.9371 -0.3491 0.3491 0.9371 -17.0621 20.7947)" fill="#B3282D" width="11.2" height="280.4"/>
<rect x="127.6" y="-112.8" transform="matrix(0.9371 -0.3491 0.3491 0.9371 -1.1801 48.2462)" fill="#457BBE" width="11.2" height="280.4"/>
<rect x="138.2" y="-115.7" transform="matrix(0.9371 -0.3491 0.3491 0.9371 0.4997 51.7327)" fill="#43B5E3" width="11.2" height="280.4"/>
<rect x="117.1" y="-108.9" transform="matrix(0.9371 -0.3491 0.3491 0.9371 -3.209 44.8226)" fill="#312A7E" width="11.2" height="280.4"/>
<rect x="106.6" y="-105" transform="matrix(0.9371 -0.3491 0.3491 0.9371 -5.2379 41.399)" fill="#410972" width="11.2" height="280.4"/>
<rect x="96.1" y="-101.1" transform="matrix(0.9371 -0.3491 0.3491 0.9371 -7.2668 37.9755)" fill="#803D96" width="11.2" height="280.4"/>
<rect x="180.2" y="-131.4" transform="matrix(0.9371 -0.3491 0.3491 0.9371 8.6153 65.427)" fill="#81BC41" width="11.2" height="280.4"/>
<rect x="190.7" y="-135.3" transform="matrix(0.9371 -0.3491 0.3491 0.9371 10.6442 68.8505)" fill="#CCDB2A" width="11.2" height="280.4"/>
<rect x="169.7" y="-127.5" transform="matrix(0.9371 -0.3491 0.3491 0.9371 6.5864 62.0034)" fill="#40AE49" width="11.2" height="280.4"/>
<rect x="159.2" y="-123.6" transform="matrix(0.9371 -0.3491 0.3491 0.9371 4.5575 58.5798)" fill="#008345" width="11.2" height="280.4"/>
<rect x="148.7" y="-119.6" transform="matrix(0.9371 -0.3491 0.3491 0.9371 2.5286 55.1562)" fill="#00A896" width="11.2" height="280.4"/>
</svg>
