<?xml version="1.0" encoding="utf-8"?>
<!-- Generator: Adobe Illustrator 23.0.4, SVG Export Plug-In . SVG Version: 6.00 Build 0)  -->
<svg version="1.2" baseProfile="tiny" id="Layer_1" xmlns="http://www.w3.org/2000/svg" xmlns:xlink="http://www.w3.org/1999/xlink"
	 x="0px" y="0px" viewBox="0 0 100 200" xml:space="preserve">
<rect x="-5.3" y="-13.3" transform="matrix(0.9371 -0.3491 0.3491 0.9371 -40.5859 6.9442)" fill="#ED7623" width="8.6" height="258.7"/>
<rect x="2.7" y="-15.3" transform="matrix(0.9371 -0.3491 0.3491 0.9371 -39.3907 9.6363)" fill="#E02726" width="8.6" height="258.7"/>
<rect x="-13.4" y="-11.3" transform="matrix(0.9371 -0.3491 0.3491 0.9371 -41.7812 4.2522)" fill="#F5A81C" width="8.6" height="258.7"/>
<rect x="-21.5" y="-9.3" transform="matrix(0.9371 -0.3491 0.3491 0.9371 -42.9764 1.5601)" fill="#FFCD00" width="8.6" height="258.7"/>
<rect x="-29.5" y="-7.4" transform="matrix(0.9371 -0.3491 0.3491 0.9371 -44.1716 -1.132)" fill="#FCDC00" width="8.6" height="258.7"/>
<rect x="35" y="-22.2" transform="matrix(0.9371 -0.3491 0.3491 0.9371 -34.9222 20.4791)" fill="#8D1D59" width="8.6" height="258.7"/>
<rect x="43.1" y="-24.2" transform="matrix(0.9371 -0.3491 0.3491 0.9371 -33.727 23.1712)" fill="#9A268D" width="8.6" height="258.7"/>
<rect x="27" y="-20.3" transform="matrix(0.9371 -0.3491 0.3491 0.9371 -36.1174 17.7871)" fill="#E81D76" width="8.6" height="258.7"/>
<rect x="18.9" y="-18.3" transform="matrix(0.9371 -0.3491 0.3491 0.9371 -37.3126 15.095)" fill="#CC1F41" width="8.6" height="258.7"/>
<rect x="10.8" y="-17.2" transform="matrix(0.9371 -0.3491 0.3491 0.9371 -38.1955 12.3283)" fill="#B3282D" width="8.6" height="258.7"/>
<rect x="75.4" y="-32.1" transform="matrix(0.9371 -0.3491 0.3491 0.9371 -28.9462 33.9394)" fill="#457BBE" width="8.6" height="258.7"/>
<rect x="83.5" y="-34.2" transform="matrix(0.9371 -0.3491 0.3491 0.9371 -27.7017 36.6409)" fill="#43B5E3" width="8.6" height="258.7"/>
<rect x="67.3" y="-30.1" transform="matrix(0.9371 -0.3491 0.3491 0.9371 -30.1414 31.2473)" fill="#312A7E" width="8.6" height="258.7"/>
<rect x="59.2" y="-28.1" transform="matrix(0.9371 -0.3491 0.3491 0.9371 -31.3366 28.5553)" fill="#410972" width="8.6" height="258.7"/>
<rect x="51.2" y="-26.2" transform="matrix(0.9371 -0.3491 0.3491 0.9371 -32.5318 25.8632)" fill="#803D96" width="8.6" height="258.7"/>
<rect x="115.8" y="-42.1" transform="matrix(0.9371 -0.3491 0.3491 0.9371 -22.9208 47.4091)" fill="#81BC41" width="8.6" height="258.7"/>
<rect x="123.8" y="-44" transform="matrix(0.9371 -0.3491 0.3491 0.9371 -21.7256 50.1012)" fill="#CCDB2A" width="8.6" height="258.7"/>
<rect x="107.7" y="-40.1" transform="matrix(0.9371 -0.3491 0.3491 0.9371 -24.1161 44.7171)" fill="#40AE49" width="8.6" height="258.7"/>
<rect x="99.6" y="-38.1" transform="matrix(0.9371 -0.3491 0.3491 0.9371 -25.3113 42.025)" fill="#008345" width="8.6" height="258.7"/>
<rect x="91.6" y="-36.1" transform="matrix(0.9371 -0.3491 0.3491 0.9371 -26.5065 39.3329)" fill="#00A896" width="8.6" height="258.7"/>
</svg>
